<svg xmlns="http://www.w3.org/2000/svg" width="12" height="13" viewBox="0 0 12 13">
  <defs>
    <style>
      .metro {
        fill-rule: evenodd;
      }
    </style>
  </defs>
  <path id="Forma_1_копия" data-name="metro" class="metro" d="M9.609,8.172a1.952,1.952,0,0,0-1.433.63L3.962,6.7a1.878,1.878,0,0,0,0-.6L8.171,4.015a1.954,1.954,0,0,0,1.438.635,2,2,0,0,0,1.98-2.021,1.98,1.98,0,1,0-3.959,0,2.061,2.061,0,0,0,.023.295L3.445,5.007a1.954,1.954,0,0,0-1.438-.635,2.022,2.022,0,0,0,0,4.042,1.954,1.954,0,0,0,1.433-.63L7.654,9.891a2.073,2.073,0,0,0-.024.3A1.98,1.98,0,1,0,9.609,8.172Z"/>
</svg>
